<?xml version="1.0" encoding="utf-8"?>

<!DOCTYPE svg PUBLIC "-//W3C//DTD SVG 1.0//EN" "http://www.w3.org/TR/2001/REC-SVG-20010904/DTD/svg10.dtd">
<!-- Uploaded to: SVG Repo, www.svgrepo.com, Generator: SVG Repo Mixer Tools -->
<svg version="1.0" id="Layer_1" xmlns="http://www.w3.org/2000/svg" xmlns:xlink="http://www.w3.org/1999/xlink" 
	 width="22px" height="22px" viewBox="0 0 64 64" enable-background="new 0 0 64 64" xml:space="preserve">
<path fill="#231F20" d="M60,0H14c-2.211,0-4,1.789-4,4v27H4c-2.211,0-4,1.789-4,4v23c0,3.313,2.687,6,6,6h52c3.313,0,6-2.687,6-6V4
	C64,1.789,62.211,0,60,0z M10,58c0,2.209-1.791,4-4,4s-4-1.791-4-4V35c0-1.104,0.896-2,2-2h6V58z M21,13h15c0.553,0,1,0.447,1,1
	s-0.447,1-1,1H21c-0.553,0-1-0.447-1-1S20.447,13,21,13z M53,51H21c-0.553,0-1-0.447-1-1s0.447-1,1-1h32c0.553,0,1,0.447,1,1
	S53.553,51,53,51z M53,45H21c-0.553,0-1-0.447-1-1s0.447-1,1-1h32c0.553,0,1,0.447,1,1S53.553,45,53,45z M53,39H21
	c-0.553,0-1-0.447-1-1s0.447-1,1-1h32c0.553,0,1,0.447,1,1S53.553,39,53,39z M53,33H21c-0.553,0-1-0.447-1-1s0.447-1,1-1h32
	c0.553,0,1,0.447,1,1S53.553,33,53,33z M53,27H21c-0.553,0-1-0.447-1-1s0.447-1,1-1h32c0.553,0,1,0.447,1,1S53.553,27,53,27z M53,21
	H21c-0.553,0-1-0.447-1-1s0.447-1,1-1h32c0.553,0,1,0.447,1,1S53.553,21,53,21z"/>
</svg>